<svg xmlns="http://www.w3.org/2000/svg" width="183" height="54" viewBox="0 0 183 54" fill="none"><path d="M171.902 19.5999H5.2832V46.5281H171.902V19.5999Z" fill="white"></path><path d="M124.527 48.6208C124.163 50.3654 123.806 52.0793 123.452 53.7808C123.112 53.8911 122.469 53.904 121.997 53.8168C121.93 53.6729 121.984 53.5325 122.015 53.3926C122.181 52.6317 122.351 51.8713 122.516 51.1101C122.54 51.003 122.546 50.8922 122.534 50.7755C122.233 51.2611 122.022 51.786 121.778 52.2949C121.534 52.8059 121.296 53.3199 121.051 53.8407C120.658 53.897 120.288 53.8593 119.941 53.8645C119.788 53.7309 119.818 53.576 119.81 53.4351C119.766 52.641 119.726 51.8465 119.682 51.0523C119.676 50.9591 119.655 50.8669 119.611 50.773C119.333 51.7739 119.196 52.801 118.959 53.7964C118.585 53.8926 117.9 53.8963 117.492 53.8061C117.492 53.7298 117.478 53.6474 117.495 53.5715C117.845 51.9231 118.156 50.2662 118.521 48.6134C118.783 48.5249 119.027 48.5696 119.266 48.5624C119.509 48.555 119.753 48.5554 119.997 48.5623C120.238 48.5691 120.483 48.5266 120.709 48.6003C120.837 48.7697 120.804 48.9537 120.808 49.1298C120.817 49.4708 120.823 49.8118 120.826 50.1528C120.829 50.4772 120.827 50.8016 120.827 51.1202C120.971 51.1604 120.982 51.0605 121.015 50.9966C121.337 50.3589 121.656 49.7199 121.977 49.0817C122.057 48.9229 122.14 48.7658 122.215 48.6206C122.608 48.5426 124.033 48.5385 124.527 48.6208Z" fill="#003EBA"></path><path d="M84.3417 50.9851C84.3756 51.0445 84.3799 51.0643 84.3917 51.0709C85.2611 51.5603 85.0769 53.038 84.1386 53.5559C83.7903 53.7481 83.4115 53.8516 83.0192 53.8574C82.0277 53.8719 81.0359 53.8642 80.0443 53.8631C79.9981 53.863 79.952 53.8404 79.8752 53.8202C79.8831 53.6964 79.8761 53.5695 79.9009 53.4491C80.2179 51.9073 80.5388 50.3663 80.8614 48.8257C80.8774 48.749 80.9169 48.6773 80.9494 48.5929C81.0379 48.5817 81.1164 48.5633 81.195 48.5631C82.0404 48.5616 82.8859 48.5569 83.7312 48.5677C83.9396 48.5703 84.1505 48.6121 84.3547 48.6597C84.821 48.7684 85.0832 49.0774 85.1316 49.5462C85.1867 50.0793 85.0576 50.5465 84.5672 50.8503C84.4986 50.8928 84.4286 50.9332 84.3417 50.9851ZM81.7039 52.5759C82.0038 52.5759 82.2448 52.5766 82.4859 52.5756C82.583 52.5753 82.6826 52.5841 82.7766 52.5659C82.8856 52.5448 82.9996 52.5152 83.094 52.4598C83.285 52.3476 83.3271 52.1606 83.2959 51.9536C83.2698 51.7799 83.1388 51.6546 82.9171 51.6383C82.5806 51.6137 82.2419 51.6105 81.8935 51.6439C81.8538 51.7888 81.8133 51.91 81.7884 52.0344C81.7569 52.1916 81.7382 52.3513 81.7039 52.5759ZM82.2814 49.8619C82.1877 50.1243 82.1102 50.3337 82.1723 50.5791C82.4647 50.6381 82.7535 50.6074 83.0403 50.6011C83.1174 50.5993 83.1968 50.566 83.2696 50.5343C83.4475 50.4568 83.513 50.3396 83.4942 50.1528C83.4767 49.9791 83.3769 49.8752 83.169 49.8654C82.8819 49.8518 82.5936 49.8619 82.2814 49.8619Z" fill="#003EBA"></path><path d="M132.874 53.8695C132.497 53.8695 132.173 53.8715 131.849 53.8686C131.705 53.8674 131.561 53.8564 131.384 53.8483C131.381 53.7539 131.365 53.6765 131.379 53.6054C131.693 52.0453 132.009 50.4857 132.328 48.9265C132.35 48.8173 132.394 48.7125 132.429 48.6024C132.698 48.5299 132.958 48.5684 133.215 48.5619C133.458 48.5559 133.701 48.5606 133.961 48.5606C134.017 48.6735 134.076 48.7679 134.112 48.8706C134.34 49.5308 134.562 50.1931 134.788 50.854C134.828 50.9721 134.879 51.0868 134.958 51.2885C135.221 50.3488 135.308 49.4597 135.547 48.6186C135.972 48.5387 136.638 48.5407 137.028 48.6212C137.032 48.6796 137.05 48.7449 137.038 48.804C136.701 50.4423 136.362 52.08 136.02 53.7172C136.011 53.761 135.969 53.7979 135.925 53.8647C135.438 53.8672 134.937 53.8843 134.429 53.8525C134.22 53.3874 134.117 52.9092 133.951 52.4536C133.792 52.0183 133.711 51.5531 133.455 51.0724C133.255 52.0333 133.071 52.9198 132.874 53.8695Z" fill="#003EBA"></path><path d="M147.581 53.8667C147.123 53.8667 146.718 53.8683 146.312 53.865C146.25 53.8645 146.188 53.8411 146.115 53.826C146.11 53.7525 146.092 53.6872 146.104 53.628C146.439 51.96 146.777 50.2926 147.11 48.6423C147.469 48.5439 148.08 48.529 148.716 48.598C148.76 48.6994 148.819 48.8123 148.859 48.9313C149.091 49.6067 149.317 50.2839 149.547 50.9597C149.577 51.0477 149.622 51.1308 149.692 51.288C149.932 50.3517 150.047 49.4682 150.268 48.593C150.778 48.5424 151.257 48.5455 151.767 48.5905C151.761 48.7048 151.767 48.7987 151.749 48.8876C151.438 50.4138 151.125 51.9396 150.809 53.4648C150.783 53.5897 150.738 53.7106 150.694 53.8607C150.18 53.8751 149.679 53.8741 149.152 53.8596C148.795 52.9625 148.578 52.0296 148.203 51.0524C147.941 52.0241 147.835 52.9389 147.581 53.8667Z" fill="#003EBA"></path><path d="M162.125 48.6365C161.776 50.3669 161.427 52.0987 161.049 53.8518C160.52 53.884 160.019 53.8676 159.546 53.8647C159.369 53.7167 159.351 53.5295 159.296 53.3627C159.086 52.7136 158.884 52.0617 158.676 51.4118C158.648 51.3233 158.605 51.2396 158.536 51.0761C158.369 51.5976 158.322 52.0635 158.213 52.5139C158.106 52.9521 158.071 53.4085 157.917 53.8226C157.401 53.8962 156.783 53.8875 156.444 53.8068C156.457 53.3893 157.325 49.0887 157.504 48.5786C158.006 48.5502 158.52 48.5469 159.051 48.5856C159.407 49.4493 159.638 50.3435 160.001 51.2819C160.183 50.7797 160.22 50.3341 160.319 49.9042C160.417 49.4784 160.496 49.0483 160.581 48.6331C160.991 48.5342 161.729 48.5354 162.125 48.6365Z" fill="#003EBA"></path><path d="M109.082 53.8607C108.568 53.8751 108.068 53.8742 107.54 53.8596C107.183 52.9625 106.966 52.0297 106.591 51.0525C106.33 52.0241 106.223 52.9389 105.985 53.8089C105.567 53.8908 104.903 53.8905 104.502 53.8111C104.498 53.7526 104.48 53.6873 104.492 53.6281C104.827 51.9601 105.165 50.2926 105.499 48.6424C105.857 48.5439 106.467 48.529 107.104 48.598C107.148 48.6993 107.207 48.8122 107.247 48.9312C107.479 49.6067 107.705 50.2838 107.935 50.9595C107.965 51.0476 108.01 51.1307 108.077 51.2816C108.328 50.3537 108.422 49.4652 108.666 48.5922C109.166 48.5423 109.645 48.5456 110.155 48.5905C110.149 48.7047 110.156 48.7987 110.138 48.8875C109.826 50.4137 109.513 51.9394 109.197 53.4646C109.171 53.5896 109.126 53.7106 109.082 53.8607Z" fill="#003EBA"></path><path d="M97.874 48.5912C97.9305 48.5823 97.9936 48.5641 98.0568 48.5639C98.8044 48.562 99.5526 48.5444 100.299 48.5673C101.454 48.6026 102.234 49.3985 102.28 50.5559C102.294 50.9138 102.266 51.2675 102.187 51.6196C101.896 52.9023 100.992 53.7127 99.6823 53.8484C99.5531 53.8617 99.4227 53.8677 99.2929 53.8681C98.5778 53.8701 97.8626 53.8706 97.1475 53.8681C97.0364 53.8677 96.9253 53.8492 96.7995 53.8377C96.7995 53.7256 96.7855 53.6299 96.8016 53.5396C97.1614 51.5229 97.7213 48.9413 97.874 48.5912ZM99.1941 49.9848C98.8216 51.4771 98.7162 52.0613 98.7499 52.4723C99.0046 52.4723 99.2628 52.4795 99.5204 52.4702C99.7555 52.4616 99.9605 52.3633 100.138 52.2114C100.578 51.8353 100.788 50.9553 100.575 50.4136C100.477 50.1636 100.298 50.0129 100.037 49.9751C99.7655 49.9357 99.4906 49.9288 99.1941 49.9848Z" fill="#003EBA"></path><path d="M169.122 51.8936C168.974 52.0798 168.973 52.2514 168.989 52.4434C169.443 52.5146 169.882 52.461 170.318 52.4786C170.737 52.4955 171.16 52.4387 171.575 52.5148C171.598 52.8547 171.519 53.2913 171.337 53.8305C171.258 53.8419 171.165 53.8669 171.072 53.8671C169.835 53.8698 168.598 53.8696 167.361 53.8678C167.265 53.8677 167.17 53.8499 167.092 53.842C167.069 53.8068 167.059 53.7951 167.054 53.7815C167.048 53.7666 167.041 53.7488 167.044 53.7342C167.364 52.1416 167.684 50.5491 168.006 48.9571C168.028 48.8462 168.067 48.7387 168.105 48.6094C168.196 48.5936 168.288 48.564 168.38 48.5637C169.617 48.5607 170.854 48.5612 172.091 48.5629C172.17 48.563 172.249 48.5801 172.324 48.5889C172.34 49.0176 172.227 49.5754 172.044 49.9437H169.534C169.376 50.1255 169.373 50.3125 169.373 50.5355C169.497 50.5546 169.604 50.584 169.71 50.5851C170.215 50.5903 170.719 50.5863 171.224 50.5887C171.384 50.5895 171.544 50.6 171.699 50.6059C171.748 50.9846 171.697 51.2915 171.497 51.831C171.388 51.8439 171.263 51.8703 171.138 51.8715C170.617 51.8765 170.096 51.8724 169.575 51.8751C169.415 51.876 169.255 51.8879 169.122 51.8936Z" fill="#003EBA"></path><path d="M142.215 48.6148C142.707 48.5413 146.063 48.5445 146.479 48.6122C146.552 48.8029 146.453 48.9894 146.414 49.1679C146.22 50.0456 146.433 49.9428 145.48 49.9493C145.008 49.9525 144.536 49.9483 144.065 49.9509C143.92 49.9516 143.776 49.9638 143.627 49.9709C143.55 50.1503 143.489 50.3127 143.504 50.4783C143.596 50.6081 143.717 50.5855 143.826 50.5861C144.346 50.5889 144.867 50.5857 145.387 50.5889C145.546 50.5899 145.704 50.6043 145.893 50.614C145.868 51.0504 145.785 51.4358 145.647 51.8444C144.851 51.9189 144.055 51.8335 143.248 51.8974C143.139 52.0496 143.106 52.217 143.107 52.431C143.217 52.4471 143.321 52.4751 143.426 52.4758C144.027 52.4802 144.629 52.4768 145.231 52.4792C145.39 52.4799 145.549 52.4916 145.729 52.499C145.751 52.9774 145.594 53.3874 145.515 53.8149C145.144 53.9194 144.785 53.8561 144.432 53.8671C144.074 53.8782 143.716 53.8695 143.358 53.8695C143.001 53.8695 142.643 53.8724 142.285 53.8687C141.931 53.8651 141.575 53.8853 141.198 53.8516C141.198 53.7587 141.187 53.6953 141.199 53.6365C141.536 51.9667 141.874 50.2973 142.215 48.6148Z" fill="#003EBA"></path><path d="M115.148 50.44H113.725C113.687 50.3603 113.648 50.2758 113.606 50.1928C113.456 49.8944 113.231 49.761 112.902 49.7893C112.616 49.8138 112.359 49.9198 112.181 50.1503C112.064 50.3028 111.963 50.4748 111.889 50.6522C111.722 51.0504 111.692 51.4728 111.743 51.8974C111.798 52.3485 112.063 52.6022 112.515 52.6296C112.831 52.6487 113.133 52.5874 113.354 52.3285C113.393 52.2834 113.411 52.2214 113.458 52.1304C113.235 52.1064 113.05 52.0866 112.84 52.064C112.85 51.6666 112.948 51.3165 113.042 50.9754C113.443 50.9013 114.642 50.8951 115.123 50.9635C115.13 51.0163 115.154 51.0791 115.143 51.1349C114.982 51.947 114.819 52.7584 114.651 53.5689C114.632 53.6611 114.582 53.7471 114.541 53.8514C114.389 53.8577 114.244 53.8679 114.099 53.8685C113.939 53.869 113.778 53.8607 113.605 53.856C113.579 53.7438 113.558 53.6515 113.536 53.5589C113.506 53.5569 113.471 53.545 113.445 53.5551C113.4 53.5722 113.359 53.6005 113.32 53.6287C112.675 54.093 111.978 54.0831 111.278 53.8121C110.65 53.5692 110.312 53.0488 110.173 52.4172C109.938 51.3438 110.159 50.3491 110.816 49.4689C111.278 48.85 111.921 48.5305 112.689 48.4601C113.13 48.4196 113.567 48.4346 113.988 48.5889C114.726 48.8592 115.164 49.4694 115.189 50.258C115.191 50.3034 115.169 50.3495 115.148 50.44Z" fill="#003EBA"></path><path d="M86.1352 48.568C86.6294 48.5549 87.1279 48.5594 87.6431 48.5658C87.666 48.8042 87.6183 48.9909 87.5808 49.1771C87.4175 49.9881 87.2482 50.7978 87.089 51.6095C87.055 51.7829 87.0319 51.9643 87.0432 52.1395C87.0625 52.4409 87.247 52.6127 87.5486 52.6289C87.8653 52.6459 88.1348 52.5309 88.2809 52.2435C88.3972 52.0147 88.4892 51.7669 88.5485 51.5172C88.6685 51.0123 88.757 50.5 88.862 49.9915C88.9569 49.5318 89.0565 49.0731 89.1514 48.6267C89.5597 48.5384 90.335 48.5382 90.7362 48.6244C90.7291 48.7313 90.734 48.8439 90.7123 48.9512C90.5102 49.9527 90.3038 50.9534 90.0976 51.9541C90.0714 52.081 90.0465 52.2091 90.0077 52.3324C89.7483 53.1561 89.2158 53.6947 88.3611 53.8913C87.7312 54.0361 87.1014 54.0334 86.4848 53.8378C85.965 53.6729 85.5687 53.3584 85.3927 52.8147C85.31 52.5592 85.3076 52.2994 85.3593 52.0443C85.5882 50.9156 85.8274 49.7891 86.0638 48.662C86.0667 48.6482 86.0821 48.6369 86.1352 48.568Z" fill="#003EBA"></path><path d="M167.077 50.4777C166.731 50.5696 166.209 50.5821 165.585 50.5128C165.564 50.4356 165.545 50.344 165.514 50.2571C165.386 49.9014 165.081 49.7302 164.708 49.8008C164.402 49.8587 164.173 50.0282 164.012 50.2906C163.68 50.8326 163.624 51.4247 163.742 52.0312C163.805 52.3591 164.023 52.5804 164.373 52.624C164.708 52.6658 164.983 52.5485 165.171 52.2637C165.25 52.1429 165.308 52.0073 165.39 51.8502C165.877 51.782 166.373 51.8179 166.895 51.8288C166.895 51.9538 166.915 52.0504 166.892 52.1356C166.602 53.2222 165.769 53.8986 164.639 53.9695C164.461 53.9807 164.281 53.9856 164.103 53.9786C163.06 53.9377 162.326 53.3085 162.12 52.2932C161.97 51.554 162.039 50.8314 162.328 50.1429C162.772 49.0879 163.574 48.5058 164.73 48.4456C165.071 48.4279 165.411 48.4508 165.742 48.5557C166.503 48.796 166.932 49.3124 167.046 50.0956C167.065 50.2229 167.067 50.3524 167.077 50.4777Z" fill="#003EBA"></path><path d="M128.938 53.8047C128.521 53.8921 127.814 53.8918 127.394 53.8051C127.354 53.5985 127.312 53.381 127.266 53.143C126.734 53.0658 126.218 53.1189 125.699 53.1055C125.488 53.3098 125.419 53.5907 125.26 53.8072C124.868 53.895 124.048 53.893 123.651 53.7967C123.681 53.7211 123.702 53.6453 123.74 53.5789C124.682 51.9106 125.622 50.2403 126.572 48.5793H128.133C128.17 48.7104 128.218 48.8293 128.237 48.9526C128.466 50.4293 128.691 51.9065 128.914 53.3841C128.935 53.5242 128.931 53.6682 128.938 53.8047ZM127.013 50.6447C126.98 50.6412 126.946 50.6377 126.913 50.6342C126.702 51.0412 126.478 51.442 126.299 51.9071C126.601 51.9726 126.861 51.9872 127.154 51.8818C127.118 51.5364 127.085 51.2016 127.049 50.867C127.041 50.7925 127.026 50.7187 127.013 50.6447Z" fill="#003EBA"></path><path d="M156.257 53.8506C155.699 53.8808 155.217 53.8716 154.756 53.8619C154.529 53.6537 154.671 53.3636 154.505 53.1314C154.014 53.0725 153.499 53.1163 152.988 53.1051C152.751 53.3122 152.696 53.6231 152.488 53.8593C151.984 53.8674 151.473 53.895 150.946 53.8406C150.957 53.7645 150.952 53.712 150.973 53.6746C151.926 51.9783 152.881 50.2834 153.846 48.5719C154.376 48.5527 154.89 48.5564 155.387 48.5717C155.431 48.6517 155.468 48.6915 155.475 48.7359C155.734 50.4172 155.99 52.0989 156.257 53.8506ZM154.376 51.9184C154.421 51.4134 154.366 50.969 154.226 50.6418C153.924 51.0714 153.673 51.6048 153.63 51.9229C153.867 51.9704 154.103 51.9662 154.376 51.9184Z" fill="#003EBA"></path><path d="M137.12 49.8908C137.133 49.4565 137.25 49.0532 137.349 48.6231C137.437 48.6031 137.528 48.5649 137.618 48.5646C138.919 48.5606 140.219 48.5608 141.519 48.5636C141.612 48.5638 141.706 48.592 141.827 48.6118C141.745 49.0576 141.691 49.4872 141.539 49.9107C141.08 50.0067 140.621 49.8974 140.142 49.9863C139.839 51.2554 139.638 52.5501 139.338 53.8067C138.901 53.8915 138.14 53.8904 137.738 53.806C137.817 53.1649 137.977 52.5369 138.1 51.9026C138.223 51.2701 138.362 50.641 138.474 49.9996C138.01 49.8784 137.563 50.0287 137.12 49.8908Z" fill="#003EBA"></path><path d="M94.4767 52.47C94.8923 52.4731 95.2475 52.4703 95.6024 52.4799C95.9564 52.4895 96.3135 52.4416 96.698 52.5208C96.6984 52.9721 96.5525 53.3827 96.4599 53.8203C96.3588 53.8373 96.2657 53.8663 96.1725 53.8666C95.0844 53.8699 93.9962 53.8696 92.908 53.8678C92.8132 53.8677 92.7184 53.85 92.59 53.837C92.6357 53.2211 92.8034 52.6484 92.9135 52.0666C93.0219 51.4933 93.1366 50.921 93.2609 50.3509C93.3881 49.7676 93.4627 49.1717 93.6414 48.6113C94.1344 48.5325 94.8696 48.5429 95.2246 48.6342C95.1334 49.2725 94.9854 49.9021 94.8573 50.5354C94.7322 51.154 94.6134 51.7738 94.4767 52.47Z" fill="#003EBA"></path><path d="M91.4113 48.5639C91.8896 48.5639 92.3265 48.5622 92.7633 48.5657C92.8251 48.5661 92.8867 48.591 92.9504 48.6051C92.958 48.665 92.9767 48.714 92.9679 48.7575C92.6381 50.3927 92.3063 52.0275 91.9718 53.6617C91.9593 53.7225 91.9172 53.7772 91.876 53.8608C91.5096 53.8637 91.138 53.8688 90.7665 53.8683C90.6391 53.8681 90.5118 53.8537 90.3621 53.8445C90.3621 53.7329 90.3468 53.6391 90.3644 53.5519C90.6743 52.0119 90.9876 50.4726 91.3025 48.9337C91.3248 48.8247 91.365 48.7193 91.4113 48.5639Z" fill="#003EBA"></path><path d="M103.815 53.8663C103.339 53.8663 102.902 53.868 102.465 53.8645C102.403 53.864 102.342 53.8389 102.278 53.8246C102.27 53.7653 102.252 53.7159 102.261 53.6721C102.596 52.0218 102.933 50.3718 103.272 48.7224C103.281 48.6778 103.318 48.639 103.359 48.5701C103.701 48.567 104.057 48.5615 104.412 48.5618C104.556 48.5619 104.699 48.5747 104.867 48.5829C104.867 48.696 104.882 48.7894 104.865 48.8762C104.555 50.4164 104.241 51.9558 103.926 53.495C103.904 53.604 103.863 53.7092 103.815 53.8663Z" fill="#003EBA"></path><path d="M130.182 48.5982C130.883 48.5312 131.417 48.5438 131.763 48.6297C131.763 48.6908 131.774 48.7572 131.761 48.819C131.427 50.4748 131.091 52.1301 130.755 53.7831C130.479 53.9389 130.197 53.8568 129.929 53.8645C129.673 53.8718 129.41 53.9111 129.124 53.8061C129.462 52.0658 129.813 50.3339 130.182 48.5982Z" fill="#003EBA"></path><path d="M77.9259 37.4363L76.0585 46.6442H88.0449L86.5934 26.1326L77.9259 37.4363Z" fill="#003EBA"></path><path d="M100.484 33.7395L95.2299 46.6441H100.551V33.7395H100.484Z" fill="#003EBA"></path><path d="M107.736 46.6442H113.385L117.827 25.0269L107.736 46.6442Z" fill="#003EBA"></path><path d="M171.086 17.848C170.681 17.8673 170.58 18.0156 170.51 18.4493C170.483 18.6105 170.41 18.7641 170.363 18.9071C169.827 18.8511 169.661 18.3648 169.286 18.1545C169.138 18.0711 169.058 17.8745 168.872 17.7956C168.745 17.7413 168.64 17.6332 168.526 17.5463C168.373 17.4278 168.22 17.3076 168.068 17.1865C168.011 17.1416 167.956 17.0954 167.905 17.0443C167.824 16.9612 167.756 16.8626 167.666 16.7899C167.449 16.6137 167.288 16.6297 167.079 16.8187C167.011 16.879 166.928 16.9215 166.851 16.9706C166.64 17.104 166.433 17.2421 166.218 17.3682C165.803 17.6112 165.39 17.8565 164.966 18.0815C164.765 18.1876 164.536 18.0743 164.533 17.8951C164.523 17.3397 164.508 16.7843 164.515 16.2289C164.518 15.9066 164.56 15.585 164.577 15.2627C164.595 14.9306 164.605 14.597 164.53 14.2707C164.515 14.2065 164.44 14.1322 164.376 14.108C164.146 14.0212 163.909 13.9931 163.669 14.0844C163.595 14.1123 163.522 14.1591 163.447 14.1617C162.781 14.185 162.114 14.2145 161.446 14.2128C160.949 14.2119 160.452 14.1627 159.955 14.144C159.715 14.1352 159.476 14.1509 159.236 14.1483C159.042 14.146 158.95 14.0602 158.891 13.8526C158.835 13.6606 158.824 13.4694 158.857 13.3008C158.941 12.874 158.705 12.4617 158.866 12.0235C158.969 11.7458 158.684 11.5535 158.369 11.6256C158.231 11.657 158.087 11.6616 157.93 11.6802C157.846 11.4166 157.771 11.1824 157.693 10.9392C157.643 10.9267 157.593 10.9058 157.542 10.9028C156.976 10.8733 156.411 10.8333 155.846 10.8248C155.589 10.8209 155.344 10.8913 155.256 11.1979C155.233 11.2814 155.138 11.3426 155.104 11.4255C155.036 11.5856 154.927 11.6472 154.758 11.6331C154.68 11.6268 154.6 11.6416 154.521 11.6498C154.107 11.6921 154.086 11.7592 154.026 12.1679C153.968 12.56 154.065 12.9339 154.064 13.3168C154.061 14.1303 154.067 14.9441 154.061 15.7579C154.059 16.3199 154.057 16.8822 154.031 17.4432C154.016 17.7982 153.871 17.9394 153.539 17.9358C153.248 17.9325 152.957 17.8913 152.666 17.8575C152.226 17.8068 152.009 18.0183 152.054 18.4611C152.062 18.538 152.073 18.617 152.066 18.6936C152.05 18.8544 152.037 19.0234 151.832 19.067C151.678 19.0994 151.519 19.1714 151.371 19.1531C150.776 19.0804 150.179 19.2085 149.589 19.1095C149.45 19.0863 149.279 19.0627 149.192 18.9727C149.107 18.8839 149.065 18.7044 149.081 18.5747C149.131 18.1892 149.103 17.812 149.074 17.4272C149.047 17.0827 149.155 16.727 149.123 16.3844C149.089 16.0278 149.111 15.6902 149.191 15.3479C149.201 15.3018 149.179 15.2467 149.167 15.1973C149.152 15.1327 149.125 14.7017 149.133 14.6333C149.162 14.3965 149.205 14.1604 149.211 13.923C149.221 13.4976 149.119 13.0708 149.242 12.6464C149.285 12.498 149.229 12.408 149.057 12.3693C148.629 12.2734 148.206 12.2167 147.764 12.2884C147.395 12.3487 147.307 12.4149 147.306 12.7895C147.303 13.6865 147.305 14.5835 147.302 15.4806C147.299 16.4532 147.274 17.4265 147.302 18.3982C147.311 18.7375 147.211 18.9323 146.91 19.0464C146.829 18.9909 146.733 18.9485 146.669 18.8777C146.55 18.7474 146.349 18.5924 146.36 18.4624C146.394 18.053 146.339 17.6519 146.338 17.2473C146.335 16.6441 146.376 16.0412 146.391 15.4376C146.402 14.9909 146.394 14.5436 146.406 14.0969C146.418 13.6629 146.318 13.2339 146.458 12.7922C146.554 12.4902 146.332 12.2695 145.989 12.256C145.663 12.2432 145.333 12.2734 145.005 12.2836C144.708 12.2927 144.569 12.4283 144.565 12.7319C144.56 12.9938 144.567 13.2561 144.572 13.5186C144.58 13.8896 144.601 14.2606 144.599 14.6316C144.597 15.2055 144.581 15.7793 144.569 16.3533C144.563 16.7263 144.555 17.0997 144.547 17.4727C144.543 17.6486 144.445 17.7239 144.285 17.6731C143.931 17.5621 143.563 17.4747 143.238 17.3054C142.789 17.0706 142.366 16.7932 141.865 16.6579C141.624 16.5924 141.334 16.5898 141.189 16.318C140.802 16.3543 140.558 16.0454 140.238 15.9171C139.992 15.8186 139.722 15.7511 139.511 15.6008C139.189 15.3712 138.822 15.2389 138.482 15.0529C138.33 14.9693 138.166 14.9451 137.99 15.0453C137.511 15.3181 137.031 15.5939 136.536 15.8352C135.495 16.3415 134.447 16.8315 133.396 17.3162C133.189 17.4118 132.955 17.5542 132.73 17.3007C132.724 17.2176 132.732 17.1223 132.711 17.0339C132.601 16.5878 132.609 16.5325 132.651 16.1804C132.675 15.9786 132.646 15.7697 132.631 15.5647C132.622 15.4478 132.563 15.3272 132.581 15.2172C132.654 14.7836 132.714 14.3516 132.664 13.9109C132.656 13.8463 132.654 13.7802 132.659 13.7157C132.677 13.4668 132.707 13.2185 132.722 12.9696C132.733 12.7672 132.773 12.559 132.651 12.3713C132.836 11.9531 132.75 11.528 132.697 11.0993C132.65 10.7194 132.605 10.6516 132.213 10.6458C131.847 10.6402 131.481 10.6575 131.114 10.6614C130.671 10.6657 130.229 10.6706 129.786 10.6667C129.562 10.6647 129.338 10.6372 129.114 10.6322C128.945 10.6287 128.754 10.6968 128.612 10.6369C128.349 10.5256 128.112 10.5933 127.866 10.6447C127.562 10.7089 127.469 10.7928 127.456 11.098C127.425 11.752 127.401 12.4077 127.408 13.0623C127.416 13.6626 127.48 14.2622 127.497 14.8626C127.507 15.1802 127.301 15.3502 126.993 15.341C126.533 15.3272 126.074 15.326 125.614 15.3074C125.468 15.3015 125.308 15.2326 125.225 15.4069C125.163 15.5369 125.1 15.6823 125.098 15.8221C125.088 16.2453 125.112 16.6691 125.116 17.0925C125.117 17.3443 125.091 17.5972 125.105 17.848C125.117 18.0377 125.023 18.1106 124.868 18.1637C124.289 18.3638 123.7 18.3013 123.11 18.243C122.878 18.2201 122.645 18.2056 122.391 18.1857C122.225 17.9309 122.134 17.6348 122.233 17.2792C122.289 17.0722 122.31 16.8223 122.248 16.6219C122.089 16.1008 122.246 15.5795 122.206 15.0578C122.178 14.6857 122.305 14.3062 122.184 13.9096C122.069 13.5293 122.041 13.4638 121.623 13.4789C121.435 13.2029 121.626 12.8131 121.361 12.5681C121.068 12.5681 120.786 12.576 120.505 12.5658C120.214 12.5557 119.923 12.5236 119.631 12.5095C119.436 12.5 119.238 12.521 119.043 12.5016C118.668 12.4646 118.473 12.6245 118.462 13.003C118.458 13.1328 118.461 13.2628 118.461 13.3813C118.288 13.4504 118.168 13.5106 118.039 13.5467C117.863 13.5965 117.768 13.7035 117.746 13.883C117.729 14.0277 117.686 14.1722 117.688 14.316C117.695 14.7404 117.726 15.1642 117.732 15.5883C117.735 15.7953 117.703 16.0029 117.688 16.2049C117.298 16.2439 116.947 16.3084 116.596 16.3079C116.017 16.3065 115.439 16.262 114.86 16.238C114.429 16.2204 113.998 16.2046 113.566 16.1922C113.308 16.1847 113.194 16.3163 113.212 16.6074C113.233 16.9369 113.274 17.2651 113.287 17.5945C113.295 17.7973 113.26 18.0069 113.048 18.1051C112.827 18.2073 112.588 18.2722 112.368 18.3766C112.02 18.5417 111.683 18.729 111.337 18.9003C111.258 18.9396 111.151 18.9943 111.082 18.97C110.845 18.8878 110.613 18.9353 110.377 18.9422C110.132 18.9494 109.972 18.8177 109.94 18.5679C109.906 18.3104 109.915 18.0471 109.91 17.7864C109.907 17.6561 109.959 17.5061 109.912 17.399C109.776 17.0974 109.899 16.8017 109.886 16.505C109.882 16.429 109.895 16.352 109.902 16.2754C109.938 15.8257 109.794 15.3751 109.913 14.9247C109.935 14.8412 109.945 14.7335 109.911 14.6602C109.79 14.4074 109.84 14.1646 109.91 13.9155C109.931 13.8398 109.932 13.7556 109.928 13.6764C109.903 13.2015 109.726 13.0512 109.26 13.08C109.02 13.095 108.778 13.0914 108.538 13.0888C108.395 13.0872 108.252 13.0606 108.111 13.0626C107.854 13.0665 107.599 13.0924 107.343 13.0914C107.186 13.0905 107.108 12.9945 107.113 12.8298C107.119 12.6031 107.123 12.3762 107.115 12.1499C107.11 12.0094 107.033 11.8535 107.072 11.7333C107.153 11.4927 107.115 11.2617 107.104 11.0246C107.092 10.7698 107.085 10.5147 107.079 10.2596C107.073 10.0368 107.072 9.81386 107.068 9.59116C107.067 9.44542 107.043 9.29576 107.067 9.15424C107.119 8.82875 107.174 8.50944 107.063 8.1826C107.03 8.08664 107.047 7.97165 107.05 7.86554C107.06 7.59015 107.076 7.31501 107.088 7.03995C107.094 6.88833 107.104 6.73665 107.105 6.5851C107.106 6.34791 107.164 6.08661 107.084 5.88066C107.003 5.67331 107.038 5.50792 107.06 5.31503C107.089 5.06805 107.138 4.80221 107.075 4.5726C107.029 4.40823 107.041 4.27396 107.051 4.12004C107.067 3.88453 107.056 3.64742 107.063 3.41162C107.071 3.12965 107.094 2.84768 107.094 2.56603C107.094 2.35942 107.068 2.15277 107.054 1.94611C107.047 1.85307 107.034 1.75973 107.035 1.66667C107.041 1.40832 107.066 1.14964 107.059 0.89153C107.054 0.706165 107.02 0.51982 106.979 0.338385C106.969 0.288645 106.891 0.238174 106.834 0.217865C106.722 0.17889 106.604 0.140619 106.489 0.138244C106.121 0.131081 105.753 0.150404 105.386 0.141558C104.689 0.124857 103.994 0.0973441 103.297 0.0704887C102.849 0.0534593 102.399 0.0435931 101.953 0.00564404C101.372 -0.0441364 101.106 0.236162 101.186 0.815545C101.24 1.20825 101.299 1.60612 101.291 2.0001C101.278 2.61444 101.256 3.22621 101.27 3.8426C101.292 4.80118 101.228 5.76173 101.202 6.72163C101.196 6.97147 101.21 7.22335 101.181 7.47061C101.152 7.71398 101.042 7.82234 100.824 7.81874C100.252 7.80928 99.6799 7.79815 99.1101 7.75033C98.6791 7.71398 98.518 7.81543 98.5061 8.25631C98.4944 8.65644 98.5048 9.05668 98.5061 9.45721C98.5074 10.273 98.4879 11.0895 98.5154 11.9043C98.5481 12.8884 98.4512 13.8702 98.5114 14.856C98.5547 15.5615 98.5061 16.2724 98.5154 16.9808C98.518 17.2094 98.4551 17.3921 98.3136 17.5467C97.897 17.5686 97.4987 17.587 97.1005 17.6112C96.904 17.6234 96.7062 17.6384 96.511 17.6662C96.2569 17.702 96.0093 17.7229 95.7774 17.547C95.767 17.3522 95.7578 17.155 95.746 16.9166C95.4788 16.8295 95.2063 16.741 94.9416 16.6549C94.8893 16.314 94.8369 15.9682 94.7793 15.5886C94.5513 15.5467 94.343 15.4596 94.1452 15.4803C93.3251 15.5667 92.5116 15.4806 91.6955 15.4471C91.2052 15.4272 91.0094 15.5316 90.9505 16.0085C90.94 16.0877 90.9439 16.1686 90.9413 16.2485C90.9262 16.671 90.8502 16.7375 90.4356 16.6818C90.3753 16.6736 90.3177 16.6455 90.2706 16.63C89.8999 16.9812 90.0479 17.4124 90.0263 17.8055C90.0073 18.1591 90.1134 18.5161 89.9771 18.8681C89.9248 19.0018 89.877 19.1308 89.7178 19.1328C89.347 19.1377 88.9816 19.2739 88.6017 19.1564C88.4418 19.1073 88.246 19.0902 88.0895 19.1364C87.8301 19.213 87.5969 19.1564 87.3598 19.1197C87.2792 18.6281 87.3205 18.54 87.7036 18.3383C87.87 18.2505 87.9414 18.1165 87.9454 17.922C87.948 17.6902 87.8209 17.4727 87.6493 17.4711C87.3054 17.4678 87.3264 17.1861 87.2262 17.0198C87.0971 16.805 87.2982 16.4004 87.5484 16.3183C87.7561 16.2498 87.8785 16.1074 87.982 15.9439C87.8235 15.6106 87.8229 15.6125 87.4816 15.4615C87.4109 15.4304 87.3284 15.3921 87.2891 15.3322C87.1476 15.1141 87.3238 14.6035 87.572 14.4843C87.8065 14.3713 87.8943 14.2246 87.8838 13.9901C87.8734 13.7415 87.6938 13.7085 87.5065 13.6528C87.3886 13.6177 87.2484 13.5469 87.1895 13.4494C87.0808 13.267 87.2288 12.9103 87.4122 12.7866C87.5517 12.6926 87.6794 12.5809 87.8144 12.4754C87.7764 12.3788 87.7515 12.3189 87.7305 12.258C87.7083 12.1977 87.6906 12.1365 87.6657 12.0595C87.1489 11.9622 86.5869 12.2053 86.1264 11.8496C86.1264 11.6871 86.1363 11.5404 86.1244 11.395C86.097 11.0439 85.8736 10.8186 85.554 10.8216C84.6619 10.8297 83.7698 10.8425 82.8777 10.853C82.8508 10.8533 82.8239 10.8455 82.7971 10.8471C82.4722 10.8667 82.3792 10.9564 82.3386 11.283C82.319 11.4415 82.3111 11.603 82.2751 11.7572C82.2259 11.9622 82.0714 12.0523 81.867 12.049C81.4956 12.0428 81.1243 12.0513 80.7522 12.0503C80.5322 12.0497 80.4037 12.1764 80.3369 12.3641C80.2819 12.518 80.39 12.7318 80.5623 12.8399C80.6298 12.8821 80.7155 12.8953 80.7823 12.9368C80.9147 13.019 80.9801 13.1331 80.988 13.301C80.9998 13.5293 80.8714 13.639 80.7064 13.7445C80.6081 13.8073 80.4903 13.8696 80.4339 13.9635C80.3199 14.1538 80.4117 14.3441 80.7168 14.4784C80.988 14.5975 81.0443 14.7938 81.047 15.0531C81.0495 15.306 80.937 15.4494 80.6985 15.5211C80.5374 15.57 80.407 15.6698 80.4143 15.8613C80.4221 16.0589 80.4929 16.2249 80.6847 16.3199C80.8006 16.3772 80.9114 16.4456 80.973 16.4804C80.9893 16.6582 80.9867 16.7781 81.0142 16.8907C81.0614 17.0852 80.9952 17.2284 80.8479 17.3473C80.8072 17.3807 80.7653 17.4137 80.724 17.4465C80.3389 17.7511 80.3232 18.0386 80.673 18.3671C80.7122 18.4038 80.7535 18.4385 80.7889 18.4784C80.9998 18.7159 80.9304 18.8894 80.6533 19.0269C80.3087 19.1983 79.9479 19.1161 79.5968 19.1671C79.4475 19.1888 79.3577 19.0905 79.3492 18.9206C79.3308 18.5272 79.3924 18.4257 79.8248 18.3265C80.0311 18.279 80.1732 18.1765 80.2334 17.9895C80.295 17.7966 80.1444 17.6649 80.0317 17.5381C79.9852 17.4861 79.8994 17.4629 79.8267 17.4419C79.6767 17.3993 79.5234 17.3672 79.3597 17.3279C79.395 17.0318 79.1671 16.7902 79.3263 16.5164C79.4842 16.2439 79.7973 16.3058 80.0344 16.1908C80.0828 16.0664 80.1293 15.9456 80.1718 15.8362C80.054 15.7074 79.9564 15.6013 79.8516 15.4867C79.7618 15.5005 79.6715 15.5142 79.6446 15.5185C79.4999 15.4196 79.3892 15.3442 79.2942 15.2791C79.3466 14.9955 79.3924 14.7518 79.4357 14.522C79.6942 14.4468 79.9103 14.3144 80.0841 14.1247C80.0318 14.0071 79.978 13.8882 79.9322 13.7851C79.7848 13.735 79.6545 13.7019 79.5352 13.6459C79.4684 13.6144 79.3924 13.5558 79.3663 13.4913C79.2418 13.1795 79.4069 12.8491 79.7317 12.7351C80.0488 12.6238 80.109 12.4783 79.9688 12.0959C79.642 12.0719 79.3007 12.0398 78.9575 12.0244C78.7768 12.0166 78.594 12.0506 78.4133 12.0418C78.2089 12.0313 78.0497 11.7965 78.0942 11.4828C78.1322 11.2132 78.0432 11.0072 77.9109 10.7698C77.5486 10.7698 77.1799 10.7747 76.8105 10.7688C76.2786 10.76 75.7467 10.7407 75.2149 10.7327C75.1088 10.7311 75.004 10.7678 74.8979 10.7757C74.6739 10.7924 74.5717 10.9388 74.5226 11.13C74.501 11.2142 74.5134 11.3079 74.5154 11.3973C74.5278 11.8558 74.345 12.0228 73.895 11.9898C73.5492 11.9645 73.2015 11.9527 72.855 11.9543C72.6218 11.9553 72.4718 12.0886 72.4581 12.2625C72.4469 12.4089 72.6408 12.6617 72.794 12.7003C73.2564 12.8166 73.3514 13.0023 73.2008 13.45C73.0147 13.5352 72.8438 13.6023 72.684 13.6884C72.3892 13.8479 72.3598 14.1083 72.6198 14.3228C72.7181 14.404 72.8536 14.4391 72.967 14.5039C73.0455 14.5481 73.1418 14.5914 73.1837 14.6627C73.356 14.9555 73.1831 15.4028 72.847 15.4645C72.6244 15.5051 72.5386 15.6295 72.5209 15.8024C72.5019 15.9862 72.5955 16.1372 72.7914 16.1997C73.0737 16.2904 73.1909 16.4918 73.1766 16.7817C73.1726 16.875 73.1792 16.9687 73.1818 17.0624C73.187 17.2257 73.1359 17.3315 72.9565 17.3865C72.7089 17.4622 72.4809 17.5762 72.496 17.906C72.5098 18.2115 72.7023 18.2924 72.959 18.3569C73.1935 18.4155 73.2473 18.6752 73.0724 18.8275C73.0102 18.8822 72.9028 18.9124 72.8176 18.9104C72.4495 18.9006 72.0801 18.8816 71.7126 18.8521C71.5529 18.8397 71.374 18.6366 71.3904 18.4978C71.4303 18.1584 71.3682 17.8231 71.3635 17.492C71.3589 17.2009 71.2188 17.1072 71.0452 17.0793C70.6797 17.021 70.5383 16.8177 70.478 16.4813C70.4033 16.0677 70.159 15.9115 69.7287 15.9358C69.5426 15.9462 69.3547 15.9282 69.168 15.9207C68.9807 15.9135 68.7947 15.8987 68.6073 15.8951C68.2654 15.8879 67.9183 15.921 67.5829 15.8702C67.3746 15.8388 67.2338 15.8833 67.131 16.0304C67.0282 16.1784 66.9423 16.3477 66.8906 16.5203C66.8106 16.7862 66.734 17.0178 66.3947 17.0466C66.2002 17.063 66.1013 17.2212 66.0738 17.4091C66.0607 17.5012 66.0672 17.5965 66.0685 17.6905C66.0751 18.1447 66.0868 18.5986 66.0868 19.0529C66.0863 19.153 66.0423 19.253 66.0188 19.3502C65.5498 19.2756 65.3789 19.1695 65.0272 18.7506C64.8411 18.5301 64.7107 18.5253 64.4913 18.714C64.3498 18.8351 64.2071 18.9586 64.0485 19.0529C63.8501 19.1708 63.6346 19.2602 63.4008 19.3745C63.2318 19.2785 63.1408 19.1024 63.214 18.8911C63.3215 18.5829 63.1892 18.3255 63.1119 18.0658C62.8139 17.9424 62.5329 17.9269 62.2342 17.9908C62.0692 18.0262 61.8897 17.9947 61.7161 17.9885C61.5308 17.9817 61.3454 17.9669 61.16 17.96C60.8994 17.9502 60.6393 17.9446 60.3793 17.9374C60.2614 17.9342 60.1539 17.8961 60.1461 17.7661C60.1226 17.4154 60.0504 17.0519 60.1133 16.7152C60.2358 16.055 60.1016 15.401 60.1409 14.744C60.1612 14.4004 60.0937 14.0477 60.116 13.695C60.1409 13.2965 60.0374 12.8999 60.1205 12.4941C60.1638 12.2835 60.1042 12.051 60.0858 11.8289C60.078 11.7297 60.0485 11.6315 60.0478 11.5326C60.0426 11.0846 60.0499 10.6362 60.0433 10.1881C60.04 9.98615 59.9077 9.83222 59.6994 9.81974C59.3797 9.80074 59.0588 9.80733 58.7392 9.81314C58.2473 9.82268 57.7554 9.85707 57.2641 9.84888C56.9838 9.84425 56.71 9.81609 56.429 9.88359C56.2698 9.92195 56.0877 9.86493 55.9161 9.85314C55.6509 9.83517 55.3856 9.81285 55.1197 9.80369C54.9362 9.79746 54.7503 9.82493 54.5675 9.8122C54.1778 9.78531 53.9839 9.9432 53.9839 10.3391C53.9839 11.1154 53.9957 11.8911 54.0036 12.6673C54.0068 12.9454 54.0108 13.2237 54.0212 13.5018C54.0298 13.7133 54.0651 13.9249 54.0586 14.1355C54.0494 14.4777 53.9237 14.5884 53.5595 14.613C53.3335 14.6281 53.1069 14.6382 52.8809 14.6513C52.5187 14.6723 52.3399 14.8249 52.3255 15.1723C52.3038 15.6904 52.3012 16.2095 52.3 16.7286C52.298 17.3715 52.315 18.0147 52.3078 18.6576C52.3032 19.0984 52.1598 19.2137 51.7117 19.212C51.5604 19.2114 51.4085 19.2451 51.2657 19.2621C51.0718 19.2078 50.876 19.1527 50.6146 19.0794C50.5832 18.9644 50.5315 18.7758 50.4771 18.5878C50.3225 18.0549 50.2649 17.5031 50.1502 16.9628C50.1155 16.799 50.0036 16.6415 50.0055 16.482C50.0147 15.8299 49.754 15.2198 49.7317 14.5747C49.7304 14.5357 49.7252 14.4862 49.701 14.4604C49.5555 14.3039 49.5837 14.1247 49.6178 13.9407C49.6269 13.8912 49.6282 13.8339 49.6119 13.787C49.4336 13.2686 49.3335 12.7345 49.2837 12.1902C49.2758 12.1135 49.2595 12.0373 49.2431 11.9619C49.175 11.657 49.0544 11.3537 49.0478 11.0475C49.0394 10.6686 48.8632 10.3143 48.9195 9.93272C48.9234 9.90717 48.9221 9.87152 48.9078 9.85445C48.6641 9.57214 48.8252 9.15913 48.5921 8.87453C48.6804 8.58895 48.4669 8.44977 48.277 8.40658C48.0529 8.35549 48.0134 8.21238 47.956 8.05354C47.9255 7.96937 47.937 7.85868 47.8856 7.79576C47.5778 7.41885 47.7127 6.91217 47.4968 6.51135C47.5738 6.16159 47.5787 5.81575 47.4369 5.4781C47.5905 4.99508 47.4199 4.5182 47.4058 4.03874C47.3992 3.81633 47.2994 3.58413 47.341 3.37622C47.4271 2.94388 47.2607 2.54306 47.2548 2.12579C47.2519 1.93097 47.1294 1.8877 46.9372 1.93462C46.8966 2.21655 46.8372 2.48866 46.8216 2.76347C46.7659 3.72828 46.7322 4.6944 46.6768 5.6592C46.6431 6.24247 46.5851 6.82443 46.5354 7.43588C46.3771 7.46437 46.2543 7.50105 46.1303 7.50526C45.879 7.51414 45.617 7.45982 45.3786 7.5148C45.0459 7.59172 44.7518 7.54423 44.4652 7.4231C44.404 7.24523 44.2988 7.08218 44.3027 6.92203C44.3113 6.58143 44.3234 6.26278 44.2288 5.91493C44.1194 5.51346 44.1767 5.06642 44.1594 4.63905C44.1367 4.08492 44.1171 3.53051 44.086 2.97667C44.0722 2.72904 44.0798 2.46511 43.9936 2.24078C43.9147 2.03515 43.9484 1.83927 43.9183 1.64117C43.899 1.51304 43.8783 1.38147 43.8289 1.26353C43.803 1.2029 43.6979 1.12144 43.655 1.13482C43.5813 1.15779 43.5184 1.2406 43.4706 1.31171C43.4451 1.34999 43.4582 1.41545 43.4572 1.46883C43.4369 2.45627 43.412 3.44372 43.3982 4.43104C43.3878 5.17515 43.397 5.91922 43.3851 6.66297C43.3796 7.00553 43.425 7.3612 43.2083 7.67068C43.1726 7.72144 43.1589 7.79644 43.1568 7.86063C43.1497 8.09974 43.0114 8.22218 42.7986 8.27982C42.4265 8.38036 42.2904 8.66234 42.2431 9.00654C42.142 9.74243 42.0382 10.4783 41.9513 11.2161C41.8823 11.8054 41.8397 12.3978 41.7794 12.9882C41.7555 13.224 41.7159 13.4582 41.6825 13.6927C41.6127 14.179 41.5007 14.6641 41.4877 15.152C41.48 15.4343 41.3792 15.5666 41.1562 15.6649C40.7848 15.828 40.3912 15.7605 40.0083 15.7504C39.9222 15.7481 39.8171 15.5869 39.764 15.4778C39.7204 15.3884 39.7342 15.2676 39.7352 15.1609C39.7382 14.796 39.7515 14.4309 39.7512 14.0657C39.7509 13.7333 39.5901 13.5138 39.2715 13.4487C39.0386 13.4013 38.8843 13.2516 38.7782 13.0773C38.6869 12.927 38.5824 12.8313 38.4288 12.7727C38.1514 12.6669 38.0273 12.4004 37.8629 12.1921C37.5727 11.8247 37.3372 11.4146 37.0723 11.0269C37.0133 10.9407 36.9256 10.8746 36.8532 10.7973C36.641 10.5701 36.4651 10.5337 36.2385 10.7518C35.9139 11.0642 35.6113 11.4025 35.3264 11.752C34.9734 12.1856 34.6354 12.6276 34.132 12.9038C34.0642 12.9411 33.9974 13.0014 33.9595 13.0675C33.8347 13.283 33.6359 13.3711 33.4109 13.4369C33.1443 13.5149 33.0886 13.6367 33.1204 13.9099C33.1725 14.3601 33.2304 14.8118 33.2455 15.264C33.2671 15.9137 33.257 16.5649 33.2514 17.2153C33.2495 17.4134 33.2301 17.6131 33.1967 17.8084C33.1761 17.9299 33.1613 18.0848 32.9855 18.0851C32.6144 17.4452 32.3344 16.7715 31.9768 16.1352C31.8327 15.8787 31.6817 15.7936 31.423 15.7916C31.0663 15.7887 30.7097 15.7798 30.3534 15.7687C29.5589 15.7432 28.7653 15.8398 27.9695 15.7687C27.5055 15.7274 27.0365 15.7471 26.5707 15.7206C26.4476 15.7137 26.2731 15.6714 26.2194 15.585C26.1057 15.4028 26.0376 15.1854 25.9856 14.9739C25.8984 14.6198 25.8817 14.2425 25.7544 13.9059C25.6361 13.5938 25.6603 13.2588 25.4789 12.9473C25.3119 12.6601 25.3299 12.2691 25.2434 11.9294C25.1154 11.4248 24.8943 10.9306 24.8534 10.4207C24.8268 10.0892 24.687 9.96148 24.4922 9.82004C24.2541 9.86982 24.1846 10.023 24.1634 10.2078C24.1237 10.5504 24.0914 10.8939 24.053 11.2371C23.9502 12.1636 23.848 13.0901 23.7409 14.0162C23.6996 14.3722 23.6017 14.7282 23.6099 15.0826C23.6204 15.5368 23.5077 15.9691 23.4642 16.4125C23.4281 16.782 23.2817 16.891 22.9215 16.8848C22.7214 16.8812 22.5213 16.8484 22.3212 16.8498C21.7926 16.8527 21.264 16.8704 20.7354 16.8753C20.5236 16.8773 20.3087 16.8789 20.1011 16.8452C19.9986 16.8288 19.8404 16.7437 19.8267 16.668C19.7798 16.4119 19.7789 16.1459 19.7733 15.8836C19.7622 15.3691 19.7599 14.8546 19.7536 14.3296C19.5846 14.2966 19.4713 14.2668 19.356 14.253C19.152 14.2291 18.9902 14.1112 18.9814 13.9212C18.9657 13.5695 18.9631 13.2162 18.9788 12.8647C19.0007 12.3702 19.0393 11.8757 18.912 11.391C18.8913 11.3128 18.8088 11.2211 18.7338 11.1936C18.6142 11.1497 18.4768 11.1385 18.3474 11.1418C17.974 11.151 17.6013 11.1873 17.2283 11.189C16.5101 11.1919 15.7913 11.1726 15.0727 11.1745C14.755 11.1755 14.5988 11.3206 14.5926 11.6258C14.586 11.9419 14.6201 12.2583 14.6263 12.5746C14.6342 12.9767 14.6544 13.3806 14.628 13.7811C14.5984 14.2291 14.4167 14.3621 13.9527 14.3945C13.5581 14.422 13.1683 14.4256 12.7707 14.4069C11.8406 14.3637 0.150024 14.4069 0.150024 14.4069L0.180153 46.6441H18.3497C13.7572 45.1965 11.5131 41.178 11.5131 35.9015C11.5131 27.8444 16.6421 21.1479 25.2968 21.1479C30.5788 21.1479 35.3306 23.2456 36.0622 29.5836L37.6258 21.7409H45.0063L40.0414 46.6441H47.4952L51.2988 28.1235H44.4521L45.7657 21.7409H72.6696L75.0217 31.0186L81.0384 21.7409H93.6035V36.2153H93.6716L99.467 21.7409H105.974V36.2153H106.041L111.769 21.7409H126.112L120.993 46.6441H122.123L127.069 21.7409H137.993C142.07 21.7409 147.14 24.2546 147.429 31.2652L149.399 21.7409H169.802L168.522 28.1235H155.728L155.07 31.2282H166.933L165.722 37.1572H153.826L153.169 40.2612H166.24L164.926 46.6441H182.6L182.599 17.8483C182.599 17.8483 171.627 17.8222 171.086 17.848Z" fill="#003EBA"></path><path d="M27.1274 46.6441H32.6609L33.5686 42.0911C32.3416 43.9427 30.3558 45.7452 27.1274 46.6441Z" fill="#003EBA"></path><path d="M25.2611 27.3564C20.9163 27.3564 19.3489 32.2394 19.3489 35.762C19.3489 37.82 19.8476 41.0288 23.4448 41.0288C25.9027 41.0288 27.2916 39.3893 27.7901 37.1919H34.5454L35.7761 31.0186H28.7519C28.823 28.6815 27.6833 27.3564 25.2611 27.3564Z" fill="#003EBA"></path><path d="M66.2921 25.5107L65.7543 28.1236H58.907L55.103 46.6442H68.4509L70.3182 37.5058L66.2921 25.5107Z" fill="#003EBA"></path><path d="M135.834 28.1235H133.144L130.721 40.2612H134.241C139.021 40.2612 140.118 35.0645 140.118 32.7622C140.118 29.0307 138.292 28.1235 135.834 28.1235Z" fill="#003EBA"></path><path d="M133.842 46.6442H144.247L145.663 39.7983C143.497 44.0537 139.429 46.6442 133.842 46.6442Z" fill="#003EBA"></path></svg>