<svg fill="none" height="22" viewBox="0 0 104 22" width="104" xmlns="http://www.w3.org/2000/svg" xmlns:xlink="http://www.w3.org/1999/xlink"><clipPath id="a"><path d="m0 0h104v22h-104z"/></clipPath><g clip-path="url(#a)" fill="#fff"><path d="m0 21.4384v-21.4384h7.74017v9.58173c1.38508-2.21755 4.18583-3.48746 7.74013-3.48746 5.537 0 8.7145 3.10457 8.7145 8.54473v6.7994h-7.7402v-6.091c0-2.8685-1.4801-4.3777-4.3419-4.3777-2.86184 0-4.37253 1.5379-4.37253 4.4957v5.973z"/><path d="m26.6484 14.9325v-8.27991h7.7402v6.29851c0 2.7791 1.29 4.1702 3.9312 4.1702 2.8958 0 4.4981-1.6559 4.4981-4.2883v-6.18041h7.7402v14.78261h-7.6146v-3.1333c-1.4156 2.4824-4.532 3.6949-8.0219 3.6949-5.0956 0-8.2732-2.6005-8.2732-7.0675z"/><path d="m52.2812 13.9275c0-4.90736 4.7188-7.83644 12.6457-7.83644 6.6369 0 11.264 2.21755 12.2383 5.85494l-8.1475.9477c-.4719-1.3306-2.0777-2.2176-4.3114-2.2176-2.6412 0-4.4031 1.3018-4.4031 3.2514 0 1.9495 1.8264 3.43 4.4031 3.43 2.5766 0 3.9651-.8583 4.3114-2.3643l8.1475 1.0944c-.9437 3.6374-5.6625 5.9124-12.2383 5.9124-7.8013 0-12.6457-3.1046-12.6457-8.0725z"/><path d="m95.3219 21.4384-4.5932-6.0623-3.9651 2.7791v3.2832h-7.7402v-21.4384h7.7402v12.0354l7.1087-5.38275h9.9397l-7.3291 5.26145 7.5191 9.5211h-8.6835z"/></g></svg>