<svg height="27" viewBox="0 0 175 27" width="175" xmlns="http://www.w3.org/2000/svg" xmlns:xlink="http://www.w3.org/1999/xlink"><mask id="a" fill="#fff"><path d="m.31296258.36273389h3.85072765v3.84959979h-3.85072765z" fill="#fff" fill-rule="evenodd"/></mask><mask id="b" fill="#fff"><path d="m0 26.924132h174.798077v-26.56034302h-174.798077z" fill="#fff" fill-rule="evenodd"/></mask><g fill="none" fill-rule="evenodd"><g fill="#6d6e71"><path d="m1.94290021 2.2789657h.304158c.2510395 0 .41221414-.1706341.41221414-.38529106 0-.2237526-.16117464-.38492724-.41221414-.38492724h-.304158zm-.34054054-1.03872142h.6985447c.42130977 0 .70764033.26850312.70764033.65343036 0 .28669438-.16990645.51008316-.4475052.60867983l.51044699.83279626h-.36746362l-.47442828-.78768192h-.28669438v.78768192h-.34054054zm.63596673 2.6679314c.94922038 0 1.62120582-.67162163 1.62120582-1.62047817 0-.94885655-.67198544-1.62047817-1.62120582-1.62047817-.94922037 0-1.62084199.67162162-1.62084199 1.62047817 0 .94885654.67162162 1.62047817 1.62084199 1.62047817zm0-3.54547817c1.12858628 0 1.92536383.79714137 1.92536383 1.925 0 1.12822245-.79677755 1.92463617-1.92536383 1.92463617-1.12822245 0-1.92536382-.79641372-1.92536382-1.92463617 0-1.12785863.79714137-1.925 1.92536382-1.925z" mask="url(#a)" transform="translate(170.634096 .001055)"/><path d="m41.9395322.81245842h2.9848233v11.63840958l11.4921518-11.63840958h3.7681393l-12.312578 12.60800418 12.685499 13.0558732h-3.9176716l-11.7155405-12.0859148v12.0859148h-2.9848233z"/><path d="m65.9819127 26.476263h3.0219335v-25.66387734h-3.0219335z" mask="url(#b)"/><path d="m81.2799324 13.905369h4.3655406c3.4694386 0 5.8572245-2.2011434 5.8572245-5.33440746 0-3.13290021-2.3877859-5.33404366-5.8572245-5.33404366h-4.3655406zm-2.9844594-13.09298334h7.7975052c4.9993243 0 8.543711 3.17037422 8.543711 7.75857588 0 3.69319126-2.2382536 6.45353426-5.8575884 7.42349276l6.52921 10.4818087h-3.3577443l-6.2679833-10.1463618h-4.4026508v10.1463618h-2.9844594z" mask="url(#b)"/><path d="m101.541876 22.037448c2.312838 1.529158 4.700624 2.3874221 6.976715 2.3874221 3.469439 0 5.894699-1.9399169 5.894699-4.7002599 0-6.5281185-13.319283-3.506185-13.319283-12.30966737 0-4.17780666 3.469439-7.0502079 8.543347-7.0502079 2.164398 0 4.402651.48497921 6.604158 1.49204781v3.02120583c-2.126923-1.34287942-4.328066-2.01413722-6.380041-2.01413722-3.432329 0-5.74553 1.8274948-5.74553 4.47650728 0 6.37858627 13.319282 3.39449067 13.319282 12.30966737 0 4.2898649-3.581496 7.2743243-8.692879 7.2743243-2.387786 0-4.85052-.5974012-7.200468-1.7907484z" mask="url(#b)"/><path d="m134.916123.36462578c2.387786 0 4.812682.67162162 7.051299 1.86496881v2.94698545c-2.238617-1.49204782-4.551819-2.23825364-6.715489-2.23825364-5.559251 0-9.401611 4.43903327-9.401611 10.7059252 0 6.2672557 3.84236 10.7062889 9.401611 10.7062889 2.16367 0 4.476872-.7465696 6.715489-2.2389812v2.9473492c-2.238617 1.193711-4.663513 1.8653327-7.051299 1.8653327-7.163358 0-12.200156-5.5210499-12.200156-13.2799896 0-7.75893975 5.036798-13.27962582 12.200156-13.27962582" mask="url(#b)"/><path d="m148.295582.81245842h3.022297v11.37681908h14.102235v-11.37681908h3.022298v25.66387738h-3.022298v-11.8246882h-14.102235v11.8246882h-3.022297z" mask="url(#b)"/></g><path d="m0 26.4751715h8.6295738v-25.66278584h-8.6295738z" fill="#8c6aae" mask="url(#b)"/><path d="m16.3040696 13.4303586v13.0445946h12.6789502z" fill="#eb008c" mask="url(#b)"/><path d="m16.3040696.81245842v12.61782748l12.3769751-12.61782748z" fill="#957659" mask="url(#b)"/></g></svg>