<?xml version="1.0" encoding="UTF-8"?>
<svg xmlns="http://www.w3.org/2000/svg" width="91.5" height="44.099" viewBox="0 0 91.5 44.099">
  <g id="Group_36174" data-name="Group 36174" transform="translate(-311.811 -283.4)">
    <g id="Group_148" data-name="Group 148" transform="translate(311.811 311.992)">
      <path id="Path_503" data-name="Path 503" d="M521.665,490.637v-2.254h-3.092V499.57h3.092v-4.133c0-2.672,1.294-3.945,3.4-3.945h.167v-3.318A3.455,3.455,0,0,0,521.665,490.637Z" transform="translate(-485.202 -484.333)" fill="#fff"></path>
      <path id="Path_504" data-name="Path 504" d="M572.8,497.112a2.867,2.867,0,0,1-2.838-3.089v-.041a2.858,2.858,0,0,1,2.713-3.047,3.27,3.27,0,0,1,2.547,1.231l1.941-2.087a5.5,5.5,0,0,0-4.467-1.879,5.744,5.744,0,0,0-5.865,5.823v.042a5.712,5.712,0,0,0,5.823,5.781,5.633,5.633,0,0,0,4.571-2.046l-1.858-1.878A3.543,3.543,0,0,1,572.8,497.112Z" transform="translate(-525.671 -484.359)" fill="#fff"></path>
      <path id="Path_505" data-name="Path 505" d="M644.81,488.2a5.872,5.872,0,0,0-6.074,5.823v.042a6.058,6.058,0,0,0,12.106-.042v-.041A5.815,5.815,0,0,0,644.81,488.2Zm2.9,5.865a2.866,2.866,0,0,1-2.9,3.048,2.973,2.973,0,0,1-2.943-3.089v-.041a2.866,2.866,0,0,1,2.9-3.047,2.972,2.972,0,0,1,2.943,3.089Z" transform="translate(-585.972 -484.359)" fill="#fff"></path>
      <path id="Path_506" data-name="Path 506" d="M733.444,469.914a4.3,4.3,0,0,0-3.486-1.67c-2.651,0-5.093,2.046-5.093,5.782v.041c0,3.736,2.484,5.782,5.093,5.782a4.108,4.108,0,0,0,3.486-1.816v1.607h3.173V464.4h-3.173Zm.042,4.153a2.746,2.746,0,1,1-5.448,0v-.041a2.746,2.746,0,1,1,5.448,0Z" transform="translate(-658.201 -464.404)" fill="#fff"></path>
      <path id="Path_507" data-name="Path 507" d="M821.7,493.907c0-3.173-1.705-6.076-5.441-6.08a5.57,5.57,0,0,0-5.537,5.817v.042a5.909,5.909,0,0,0,10.411,3.705l-1.814-1.609a3.667,3.667,0,0,1-2.715,1.146,2.6,2.6,0,0,1-2.732-2.195l7.785.008C821.675,494.449,821.7,494.157,821.7,493.907Zm-7.867-1.157a2.494,2.494,0,0,1,2.424-2.377,2.4,2.4,0,0,1,2.356,2.382Z" transform="translate(-730.197 -484.047)" fill="#fff"></path>
      <path id="Path_508" data-name="Path 508" d="M435.495,489.7a4.033,4.033,0,0,0-3.237-1.376,5.871,5.871,0,0,0-6.074,5.823v.042a5.815,5.815,0,0,0,6.032,5.782,4.067,4.067,0,0,0,3.279-1.4V499.7h2.722V488.516h-2.722Zm-.281,4.434a2.953,2.953,0,1,1-5.9.013v-.042a2.866,2.866,0,0,1,2.9-3.047,2.971,2.971,0,0,1,3,3.034Z" transform="translate(-407.725 -484.467)" fill="#fff"></path>
      <path id="Path_509" data-name="Path 509" d="M319.1,493.7a15.687,15.687,0,0,0-2.035-.621l-.492-.11a8.147,8.147,0,0,1-1.485-.407.8.8,0,0,1-.494-.836.924.924,0,0,1,.442-.7,2.338,2.338,0,0,1,1.317-.332h.008a1.864,1.864,0,0,1,1.25.408,1.645,1.645,0,0,1,.529,1.053l0,.028h2.491l0-.03a3.383,3.383,0,0,0-1.057-2.751,4.746,4.746,0,0,0-3.138-1.071,4.677,4.677,0,0,0-3.081.976,3.4,3.4,0,0,0-1.379,2.437,2.572,2.572,0,0,0,.389,1.838,2.913,2.913,0,0,0,1.267.977,11.554,11.554,0,0,0,1.864.542l.41.1a10.4,10.4,0,0,1,1.62.448.819.819,0,0,1,.489.887,1.089,1.089,0,0,1-.387.755,2.005,2.005,0,0,1-1.122.326,2.455,2.455,0,0,1-1.453-.436,1.384,1.384,0,0,1-.513-1.083v-.031h-2.725l0,.03a3.528,3.528,0,0,0,1.166,2.8,5.46,5.46,0,0,0,3.383,1.022,5.147,5.147,0,0,0,2.163-.425,3.918,3.918,0,0,0,1.6-1.169,3.226,3.226,0,0,0,.68-1.71,2.658,2.658,0,0,0-.405-1.889A3,3,0,0,0,319.1,493.7Z" transform="translate(-311.811 -484.467)" fill="#fff"></path>
      <path id="Path_510" data-name="Path 510" d="M383.441,471.773h-3.082v10.3a3.747,3.747,0,0,0,3.746,3.747h1.966v-2.854h-1.554a1.076,1.076,0,0,1-1.076-1.076v-4.544h2.63v-2.714h-2.63Z" transform="translate(-369.296 -470.584)" fill="#fff"></path>
    </g>
    <g id="Group_149" data-name="Group 149" transform="translate(341.901 283.4)">
      <path id="Path_511" data-name="Path 511" d="M515.981,291.995a8.545,8.545,0,0,1,3.975-9.719,10.264,10.264,0,0,0-4.155-.875,10.371,10.371,0,0,0-1.344.09,10.267,10.267,0,0,0-5.642,2.643.522.522,0,0,0,.432.9c2.182-.332,3.759.45,3.525,1.975-.331,2.153-2.69-.151-7.153,2.341a6.614,6.614,0,0,0-2.888,2.973.522.522,0,0,0,.578.7c5.253-.9,4.081,2.165,2.1,3.827-1.842,1.548-4.886,1.616-6.6,1.509a.522.522,0,0,0-.387.906c1.08.962,3.266,2.168,7.168,1.629,4.795-.663,6.7-4.358,8.408-2.667.674.666.137,1.763-3.234,2.786a.522.522,0,0,0,.054,1.015c3.891.719,10.058.088,12.953-3.814A8.544,8.544,0,0,1,515.981,291.995Z" transform="translate(-498.252 -281.4)" fill="#0274ea"></path>
      <path id="Path_512" data-name="Path 512" d="M631.387,301.268l-.046.2a2.761,2.761,0,0,1-1.492,2.153,2.488,2.488,0,0,1-3.368-1.366,2.885,2.885,0,0,1-.255-2.009,2.248,2.248,0,0,1,1.18-1.469,2.748,2.748,0,0,1,2.526.072l.2.089,1.434-3.008-.2-.1a5.666,5.666,0,0,0-5.384.066,6,6,0,0,0-3.055,3.467,5.9,5.9,0,0,0,.376,4.53l.014.026a5.873,5.873,0,0,0,3.439,3,5.727,5.727,0,0,0,1.758.276,6.017,6.017,0,0,0,2.712-.656,5.774,5.774,0,0,0,3.329-4.558l.036-.225Z" transform="translate(-602.568 -292.962)" fill="#0274ea"></path>
    </g>
  </g>
</svg>
